        <svg xmlns="http://www.w3.org/2000/svg" viewBox="0 0 67.72 12.38" width="150" fill="white"><defs><style>.logo-color{fill:#ffffff;}</style></defs><title>Cloudworkers</title><g id="Logo" data-name="Logo"><g id="Logo" data-name="Logo"><path class="cls-1" d="M28.9,6.11c0,.12,0,.23,0,.33v.13s0,0,0,0V6.43C28.91,6.1,28.91,6,28.9,6.11Z"/><path class="logo-colors" d="M67.71,8.66a4.39,4.39,0,0,1-.56.36c-.18.1-.36.2-.54.28l-.51.24a3.3,3.3,0,0,0-.45.26c0-.26,0-.51,0-.76a2.14,2.14,0,0,0,0-.58c0-.14-.06-.27-.09-.38s-.07-.21-.1-.31a2.46,2.46,0,0,1-.07-.29,3.28,3.28,0,0,1,0-.34.57.57,0,0,1,.13-.2l.26-.29A3.43,3.43,0,0,0,66,6.32.55.55,0,0,0,66.14,6a1.11,1.11,0,0,0,0-.17A.29.29,0,0,0,66,5.65a.47.47,0,0,0-.22-.15,1.23,1.23,0,0,0-.43-.06.94.94,0,0,0-.56.18.91.91,0,0,0-.21.18L64.45,6c-.25.31-.45.58-.61.79l-.4.53-.28.38c-.08.11-.19.25-.33.41l0,.05.05-.69a4.56,4.56,0,0,1-.54.39,3.6,3.6,0,0,1-.52.26,1.39,1.39,0,0,1-.54.12.34.34,0,0,1-.18,0,.29.29,0,0,1-.15-.12.46.46,0,0,1-.11-.22,1.16,1.16,0,0,1,0-.35,2,2,0,0,1,0-.31,4.62,4.62,0,0,1,.09-.47c0-.19.07-.35.09-.47A1.78,1.78,0,0,0,61,6a.59.59,0,0,0,0-.23.76.76,0,0,0-.13-.17.59.59,0,0,0-.19-.11.78.78,0,0,0-.21,0,.92.92,0,0,0-.57.18,1.93,1.93,0,0,0-.44.42,3.61,3.61,0,0,0-.37.63c-.12.26-.21.46-.29.62h-.07c0-.2,0-.43,0-.7s0-.47,0-.61a2.36,2.36,0,0,0,0-.29.25.25,0,0,0,0-.16.19.19,0,0,0-.12-.07l-.24,0-.23,0a.34.34,0,0,0-.15.06.43.43,0,0,0-.11.12,1.29,1.29,0,0,0-.09.2,4.23,4.23,0,0,0-.15.49c-.05.2-.12.45-.19.75s-.12.58-.17.84l-.12.78a.28.28,0,0,1,0,.09L56.85,9c-.22.16-.46.31-.7.45a5.7,5.7,0,0,1-.76.34,2.29,2.29,0,0,1-.74.14.66.66,0,0,1-.21,0,.46.46,0,0,1-.19-.08.62.62,0,0,1-.17-.16,1.35,1.35,0,0,1-.17-.25A4.13,4.13,0,0,0,54.85,9a3.19,3.19,0,0,0,.76-.56,2.91,2.91,0,0,0,.55-.76,1.69,1.69,0,0,0,.24-.79,1.6,1.6,0,0,0-.11-.6A1.29,1.29,0,0,0,56,5.86a1.44,1.44,0,0,0-.49-.3,1.94,1.94,0,0,0-1.34,0,2.1,2.1,0,0,0-.6.38,2.74,2.74,0,0,0-.46.55,3.79,3.79,0,0,0-.33.67,7.45,7.45,0,0,0-.25.79,3.09,3.09,0,0,0-.12.77c0,.13,0,.24,0,.36l-.07.09L52,9.54a2.69,2.69,0,0,1-.3.29,1.57,1.57,0,0,1-.28.21.48.48,0,0,1-.26.09.49.49,0,0,1-.32-.1.41.41,0,0,1-.1-.3,1.19,1.19,0,0,1,.12-.51,3.76,3.76,0,0,1,.29-.5c.12-.17.25-.34.38-.5s.27-.34.38-.5a4.59,4.59,0,0,0,.34-.59,1.38,1.38,0,0,0,.16-.58,1.65,1.65,0,0,0-.06-.46,1.1,1.1,0,0,0-.18-.34.74.74,0,0,0-.57-.3,1.83,1.83,0,0,0-.59.09,1.66,1.66,0,0,0-.44.23,2.19,2.19,0,0,0-.37.4c-.16.22-.32.42-.49.62l-.49.63-.46.6-.15-.09.7-1c0-.06.11-.2.22-.4l.37-.74c.14-.3.28-.63.44-1s.29-.75.42-1.13.23-.78.32-1.16a5.4,5.4,0,0,0,.12-1.08,2.82,2.82,0,0,0,0-.52A1.17,1.17,0,0,0,51,.45a.74.74,0,0,0-.31-.27,1,1,0,0,0-.49-.1,1.54,1.54,0,0,0-.71.16,2.41,2.41,0,0,0-.59.43,3.52,3.52,0,0,0-.49.63,7.91,7.91,0,0,0-.39.77,6.75,6.75,0,0,0-.29.83c-.08.28-.15.55-.23.81s-.13.51-.17.74-.08.42-.1.58c-.08.46-.14.93-.19,1.42s-.1,1-.13,1.4a.57.57,0,0,1,0,.13,2.8,2.8,0,0,1-.3.15,1.4,1.4,0,0,1-.55.12.33.33,0,0,1-.17,0,.36.36,0,0,1-.16-.12.75.75,0,0,1-.11-.22,1.61,1.61,0,0,1,0-.35,2,2,0,0,1,0-.31c0-.12,0-.28.1-.47s.07-.35.09-.47a1.78,1.78,0,0,0,0-.28.59.59,0,0,0-.05-.23.52.52,0,0,0-.12-.17.72.72,0,0,0-.19-.11.78.78,0,0,0-.21,0,.92.92,0,0,0-.57.18,1.75,1.75,0,0,0-.44.42,3.61,3.61,0,0,0-.37.63c-.12.26-.22.46-.29.62h-.07a5.81,5.81,0,0,1,0-.7c0-.26,0-.47,0-.61s0-.22,0-.29a.34.34,0,0,0,0-.16.19.19,0,0,0-.13-.07l-.23,0-.23,0a.34.34,0,0,0-.15.06.43.43,0,0,0-.11.12,1.29,1.29,0,0,0-.09.2,4,4,0,0,0-.16.49l-.18.75s0,.06,0,.1S42.07,7,42,6.86a3.87,3.87,0,0,0-.79-.73,3.71,3.71,0,0,0-.91-.46,3,3,0,0,0-1-.17,2.87,2.87,0,0,0-1.17.23,2.77,2.77,0,0,0-.89.65,2.93,2.93,0,0,0-.55,1,4,4,0,0,0-.19,1.33c0,.07,0,.14,0,.21l-.3.15a1.19,1.19,0,0,1-.45.1A.59.59,0,0,1,35.31,9,1.48,1.48,0,0,1,35,8.74a2.25,2.25,0,0,1-.21-.41L35,8c0-.1.13-.25.22-.46s.18-.4.26-.56l.07-.12a2.61,2.61,0,0,0,.12-.28c0-.1.08-.22.12-.35a1.12,1.12,0,0,0,.06-.35.41.41,0,0,0-.21-.35.94.94,0,0,0-.54-.14,1.07,1.07,0,0,0-.55.13.63.63,0,0,0-.31.29L32.78,9.17H32.7l.54-3.41a.33.33,0,0,0-.14-.27.63.63,0,0,0-.39-.1,1.4,1.4,0,0,0-.53.09,1.11,1.11,0,0,0-.39.29,2.09,2.09,0,0,0-.33.49c-.1.19-.2.42-.31.69s-.24.59-.38,1-.31.81-.48,1.21h-.08l.47-3.41a.31.31,0,0,0-.14-.27.76.76,0,0,0-.43-.1l-.15,0a.78.78,0,0,0-.41.11,1.2,1.2,0,0,0-.29.26,1.58,1.58,0,0,0-.2.36,2.72,2.72,0,0,0-.13.37.3.3,0,0,1,0,.09v2c0,.22,0,.42,0,.6l-.2.17-.29.19-.3.18-.28.12a.75.75,0,0,1-.24,0,.25.25,0,0,1-.19-.07.57.57,0,0,1-.13-.19,1.07,1.07,0,0,1-.06-.27c0-.11,0-.22,0-.33a2.64,2.64,0,0,1,0-.28,2.89,2.89,0,0,1,0-.29l.06-.25L27.38,8c.1-.25.31-.73.65-1.43a11.32,11.32,0,0,0,.58-1.41c.15-.47.31-1,.48-1.43a5.54,5.54,0,0,0,.26-1.56V1.73a4.51,4.51,0,0,0-.05-.65,2,2,0,0,0-.18-.55,1.1,1.1,0,0,0-.31-.39A.79.79,0,0,0,28.34,0a1.36,1.36,0,0,0-.73.23A2.83,2.83,0,0,0,27,.87a5.63,5.63,0,0,0-.58,1,6.82,6.82,0,0,0-.43,1.23c-.11.44-.21.86-.31,1.24a6.58,6.58,0,0,0-.16,1.35,2.58,2.58,0,0,0-.84.2,2.85,2.85,0,0,0-.76.5,2.88,2.88,0,0,0-.6.72c-.15.27-.29.52-.41.77a3.39,3.39,0,0,0-.28.75,3,3,0,0,0-.1.77s0,.08,0,.11a3.37,3.37,0,0,1-.4.23,3.26,3.26,0,0,1-.39.18,1,1,0,0,1-.31.06.25.25,0,0,1-.16-.05.6.6,0,0,1-.08-.16c0-.07,0-.15,0-.25V9.2a1.69,1.69,0,0,1,0-.32c0-.15.06-.33.1-.53s.08-.45.14-.76.1-.56.14-.78a3.25,3.25,0,0,0,.07-.59c0-.18,0-.33,0-.43a.3.3,0,0,0-.17-.27A.84.84,0,0,0,21,5.41a1.06,1.06,0,0,0-.45.1c-.13.07-.21.14-.23.24l-.65,3.19a1.36,1.36,0,0,1-.14.43,1.05,1.05,0,0,1-.21.31,1,1,0,0,1-.26.2.54.54,0,0,1-.26.07.25.25,0,0,1-.15,0,.28.28,0,0,1-.11-.13.49.49,0,0,1-.06-.17.75.75,0,0,1,0-.21s0-.07,0-.18,0-.26.08-.44.07-.42.13-.73.1-.57.15-.82.08-.49.13-.73l.12-.76A.26.26,0,0,0,19,5.51a1.05,1.05,0,0,0-.44-.1.75.75,0,0,0-.34.1,1.2,1.2,0,0,0-.26.24,1.81,1.81,0,0,0-.2.33,2.6,2.6,0,0,0-.13.36,2.77,2.77,0,0,0-.09.33l0,.22-.11-.13a4.15,4.15,0,0,0-.79-.73,3.89,3.89,0,0,0-.91-.46,3,3,0,0,0-1-.17,2.87,2.87,0,0,0-1.17.23,2.66,2.66,0,0,0-.89.65,2.93,2.93,0,0,0-.55,1,4,4,0,0,0-.11,2l-.25.15-.34.19L11,9.84a.63.63,0,0,1-.26.05s-.06,0-.1-.07a1.3,1.3,0,0,1-.1-.18c0-.08,0-.16-.08-.26a1.53,1.53,0,0,1,0-.3V9a2,2,0,0,1,.05-.24l.06-.24.06-.2a.77.77,0,0,1,.06-.15c.18-.36.38-.72.59-1.09L11.87,6l.61-1.16q.29-.58.51-1.17a8.46,8.46,0,0,0,.36-1.15,5.52,5.52,0,0,0,.13-1.13,3.27,3.27,0,0,0,0-.44,1.16,1.16,0,0,0-.15-.38A.73.73,0,0,0,13,.24a1,1,0,0,0-.45-.1,1.46,1.46,0,0,0-.74.21,3.1,3.1,0,0,0-.69.59,5.69,5.69,0,0,0-.63.88A9.94,9.94,0,0,0,10,2.9a11,11,0,0,0-.51,1.54c-.17.64-.26,1-.26,1s-.06.32-.17,1a9.64,9.64,0,0,0-.17,1.53c0,.21,0,.42,0,.62l-.08,0c-.32.2-.63.42-.93.64L7,9.84a7.05,7.05,0,0,1-.94.59,4.56,4.56,0,0,1-1,.42A3.92,3.92,0,0,1,3.83,11a2.48,2.48,0,0,1-.89-.16,1.68,1.68,0,0,1-.68-.46,2.1,2.1,0,0,1-.42-.77,3.54,3.54,0,0,1-.15-1.09,6.49,6.49,0,0,1,.08-.93,8.25,8.25,0,0,1,.25-1A9.27,9.27,0,0,1,2.4,5.49a9.11,9.11,0,0,1,.51-1,6.9,6.9,0,0,1,.61-.94,5.13,5.13,0,0,1,.7-.76A3.08,3.08,0,0,1,5,2.25a1.86,1.86,0,0,1,.82-.19,1.58,1.58,0,0,1,.61.11,1.22,1.22,0,0,1,.41.29,1.09,1.09,0,0,1,.22.41,1.7,1.7,0,0,1,.08.51,2.13,2.13,0,0,1-.2.91A2.43,2.43,0,0,1,6.42,5a2.14,2.14,0,0,1-.69.46A1.9,1.9,0,0,1,5,5.63a.75.75,0,0,1-.23,0l-.15,0-.12,0a.23.23,0,0,0-.12,0,.36.36,0,0,0-.19,0,.37.37,0,0,0-.1.16,1.08,1.08,0,0,0,0,.21C4,6,4,6.06,4,6.13v.14a.45.45,0,0,1,0,.11.45.45,0,0,0,.26.41,1.67,1.67,0,0,0,.8.15,2.32,2.32,0,0,0,.81-.15,3.69,3.69,0,0,0,.78-.42,4,4,0,0,0,.7-.62A4.66,4.66,0,0,0,7.92,5a4,4,0,0,0,.38-.85,3,3,0,0,0,.14-.88,2.76,2.76,0,0,0-.22-1.12,2.54,2.54,0,0,0-.57-.78A2.21,2.21,0,0,0,6.87.9,2.58,2.58,0,0,0,6,.75,3.83,3.83,0,0,0,4.76,1a4.75,4.75,0,0,0-1.14.59,6.08,6.08,0,0,0-1,.88,8.55,8.55,0,0,0-.88,1.09A10.25,10.25,0,0,0,1,4.76,10.35,10.35,0,0,0,.45,6.05,10.68,10.68,0,0,0,.12,7.31,6.28,6.28,0,0,0,0,8.48,4.61,4.61,0,0,0,.24,10a4.07,4.07,0,0,0,.7,1.24A3.31,3.31,0,0,0,2,12.06a3.2,3.2,0,0,0,1.43.32,8.48,8.48,0,0,0,1.3-.1A7.14,7.14,0,0,0,5.83,12a6.24,6.24,0,0,0,.9-.38,7.24,7.24,0,0,0,.74-.45,4.68,4.68,0,0,0,.64-.52l.57-.52.43-.36a4.72,4.72,0,0,0,.16.45,2.62,2.62,0,0,0,.47.74.83.83,0,0,0,.59.27,2.37,2.37,0,0,0,.44-.05l.48-.14a5.32,5.32,0,0,0,.5-.21l.47-.23.13-.08a1.67,1.67,0,0,0,.51.48,1.65,1.65,0,0,0,.88.23,1.85,1.85,0,0,0,.67-.12,2.45,2.45,0,0,0,.59-.34,2.5,2.5,0,0,0,.47-.5,2.84,2.84,0,0,0,.35-.61,3.57,3.57,0,0,0,.3-1.38A3.7,3.7,0,0,0,16,7.45a3.07,3.07,0,0,0-.25-.72l.05-.06.5.35a4.36,4.36,0,0,1,.59.5l.4.38a6.79,6.79,0,0,1-.19.88A5.06,5.06,0,0,0,17,10a2.21,2.21,0,0,0,.07.62,1,1,0,0,0,.21.4.89.89,0,0,0,.3.22,1,1,0,0,0,.36.06,1.36,1.36,0,0,0,.48-.09,2.22,2.22,0,0,0,.5-.27,4.11,4.11,0,0,0,.48-.39c.15-.16.3-.32.44-.5a4.63,4.63,0,0,0,.14.48,1.29,1.29,0,0,0,.19.37.62.62,0,0,0,.27.24.7.7,0,0,0,.37.09,2.09,2.09,0,0,0,.47-.06,3.72,3.72,0,0,0,.51-.16c.18-.07.35-.15.53-.24a3.62,3.62,0,0,0,.43-.24,1,1,0,0,0,.08.18,1.32,1.32,0,0,0,.46.42,1.29,1.29,0,0,0,.66.16,1.7,1.7,0,0,0,.54-.09,3.1,3.1,0,0,0,.53-.24,4.1,4.1,0,0,0,.5-.35,4.76,4.76,0,0,0,.46-.43,2,2,0,0,0,.34.58,1.43,1.43,0,0,0,.39.33,1.38,1.38,0,0,0,.36.16l.25,0a1,1,0,0,0,.32-.05,2,2,0,0,0,.35-.14c.12-.05.24-.12.37-.19l.36-.22.32-.24c0,.06,0,.12.05.18.13.45.35.67.65.67A.88.88,0,0,0,30.3,11a3,3,0,0,0,.55-.6,5.6,5.6,0,0,0,.49-.92,8.28,8.28,0,0,0,.4-1.16l.17,0c0,.22,0,.43,0,.66s0,.43,0,.65,0,.41,0,.6,0,.35.06.49a1.35,1.35,0,0,0,.11.34c0,.09.09.13.14.13a.81.81,0,0,0,.47-.16,1.88,1.88,0,0,0,.46-.44,4.59,4.59,0,0,0,.45-.67,8.68,8.68,0,0,0,.41-.86,1.58,1.58,0,0,0,.13.62,1.23,1.23,0,0,0,.32.42,1.47,1.47,0,0,0,.47.23,2.12,2.12,0,0,0,.57.07,2.34,2.34,0,0,0,.79-.15,3,3,0,0,0,.36-.18c.05.1.1.21.16.31a2,2,0,0,0,.6.58,1.65,1.65,0,0,0,.88.23,2,2,0,0,0,.68-.12,2.59,2.59,0,0,0,.58-.34,2.25,2.25,0,0,0,.47-.5,2.84,2.84,0,0,0,.35-.61,3.57,3.57,0,0,0,.3-1.38,4.39,4.39,0,0,0-.08-.85,3.64,3.64,0,0,0-.26-.72l.05-.06L41,7a5.12,5.12,0,0,1,.6.5l.51.5c0,.23-.07.46-.1.68s-.06.5-.08.72,0,.43,0,.61a3.4,3.4,0,0,0,0,.45,1.12,1.12,0,0,0,.11.39.62.62,0,0,0,.22.28.67.67,0,0,0,.39.1.41.41,0,0,0,.19,0,.48.48,0,0,0,.17-.13.89.89,0,0,0,.14-.24,2.9,2.9,0,0,0,.16-.38l1.05-2.92h.09a6,6,0,0,0,.13.72,2.34,2.34,0,0,0,.23.66,1.35,1.35,0,0,0,.43.46,1.24,1.24,0,0,0,.71.18,1.59,1.59,0,0,0,.48-.07,3.66,3.66,0,0,0,.46-.18l0,0c0,.27,0,.51,0,.69a3.85,3.85,0,0,0,0,.49,1.18,1.18,0,0,0,.09.4.63.63,0,0,0,.23.28.64.64,0,0,0,.39.1.58.58,0,0,0,.33-.09.91.91,0,0,0,.28-.3l1.73-3a1.7,1.7,0,0,1,.34-.46.52.52,0,0,1,.26-.13.16.16,0,0,1,.13.08.54.54,0,0,1,0,.2.2.2,0,0,1,0,.13.5.5,0,0,1-.1.13L50.4,8l-.19.2a4.78,4.78,0,0,0-.43.64,4.18,4.18,0,0,0-.25.55,2.66,2.66,0,0,0-.13.45,2.47,2.47,0,0,0,0,.34,1.4,1.4,0,0,0,.06.41.76.76,0,0,0,.2.36,1.09,1.09,0,0,0,.42.25,1.94,1.94,0,0,0,.69.1,2.63,2.63,0,0,0,.67-.09,3.91,3.91,0,0,0,.68-.24,4.6,4.6,0,0,0,.6-.37l.16-.15.06.1a2,2,0,0,0,.69.55,2.18,2.18,0,0,0,.95.2,3.27,3.27,0,0,0,.7-.08,4.64,4.64,0,0,0,.66-.22,4.37,4.37,0,0,0,.61-.31l.5-.33a1,1,0,0,1,0,.17,1.12,1.12,0,0,0,.11.39.69.69,0,0,0,.22.28.67.67,0,0,0,.39.1.46.46,0,0,0,.36-.17,1.25,1.25,0,0,0,.15-.24,3,3,0,0,0,.15-.38l1.05-2.92h.09c0,.24.08.48.13.72a2.71,2.71,0,0,0,.23.66,1.35,1.35,0,0,0,.43.46,1.27,1.27,0,0,0,.71.18,1.64,1.64,0,0,0,.37-.05l0,0a.5.5,0,0,0-.07.27.74.74,0,0,0,0,.24.33.33,0,0,0,.09.13.33.33,0,0,0,.14,0h.34l.16,0a1,1,0,0,0,.17.51,1,1,0,0,0,.36.35,1.66,1.66,0,0,0,.53.19,3.24,3.24,0,0,0,.64.06,5.33,5.33,0,0,0,1-.1,7.92,7.92,0,0,0,1.06-.29,8.24,8.24,0,0,0,1-.42,5.65,5.65,0,0,0,.84-.5ZM10.52,5.21c.11-.53.16-.79.16-.79l.26-.86a9.07,9.07,0,0,1,.44-1.23,2.94,2.94,0,0,1,.38-.61.48.48,0,0,1,.34-.22s.05,0,.06.12v.29a5.33,5.33,0,0,1-.24,1.16c-.13.42-.29.84-.46,1.25s-.36.83-.56,1.22-.39.75-.56,1.07A10.53,10.53,0,0,1,10.52,5.21Zm4.39,3.46a3.08,3.08,0,0,1-.23.74,1.78,1.78,0,0,1-.32.51.55.55,0,0,1-.39.21.81.81,0,0,1-.39-.1.84.84,0,0,1-.27-.26,1.31,1.31,0,0,1-.14-.38,1.71,1.71,0,0,1-.05-.46,3.81,3.81,0,0,1,.09-.87,3.49,3.49,0,0,1,.26-.71,1.94,1.94,0,0,1,.38-.52.67.67,0,0,1,.46-.21.48.48,0,0,1,.31.1.71.71,0,0,1,.21.27,1.45,1.45,0,0,1,.12.4,2.67,2.67,0,0,1,0,.5A3.82,3.82,0,0,1,14.91,8.67Zm10.37.73a1.3,1.3,0,0,1-.15.2L25,9.77a.82.82,0,0,1-.2.12.5.5,0,0,1-.21,0,1,1,0,0,1-.33,0,.56.56,0,0,1-.2-.12.29.29,0,0,1-.09-.16.63.63,0,0,1,0-.19,2.46,2.46,0,0,1,.1-.66c.07-.24.18-.53.31-.87a2.44,2.44,0,0,1,.51-.82,2.54,2.54,0,0,1,.68-.5s0,0,0,.12V7c0,.13,0,.27,0,.43s0,.36,0,.6,0,.43,0,.55,0,.21,0,.27A3.45,3.45,0,0,1,25.28,9.4Zm1.64-2.52v-.7c0-.15,0-.31,0-.49s0-.37,0-.56,0-.26,0-.49,0-.47.08-.76A7.25,7.25,0,0,1,27.28,3l.2-.81a1.93,1.93,0,0,1,.25-.61.43.43,0,0,1,.34-.24.18.18,0,0,1,.17.12,1.16,1.16,0,0,1,.05.44c0,.16,0,.38,0,.65a5.67,5.67,0,0,1-.11.66c0,.23-.11.46-.18.7s-.15.47-.23.71-.15.47-.22.69C27.34,5.84,27.14,6.36,26.92,6.88ZM39.53,8.67a3.08,3.08,0,0,1-.23.74,1.78,1.78,0,0,1-.32.51.55.55,0,0,1-.39.21.81.81,0,0,1-.39-.1.84.84,0,0,1-.27-.26,1.31,1.31,0,0,1-.14-.38,2.24,2.24,0,0,1,0-.46,3.81,3.81,0,0,1,.09-.87,3.49,3.49,0,0,1,.26-.71,1.94,1.94,0,0,1,.38-.52.67.67,0,0,1,.46-.21.48.48,0,0,1,.31.1.71.71,0,0,1,.21.27,1.17,1.17,0,0,1,.12.4,2.65,2.65,0,0,1,0,.5A3.89,3.89,0,0,1,39.53,8.67Zm8.64-1.4c0-.48.08-1,.14-1.45,0-.2.06-.42.1-.65s.07-.46.1-.69.09-.48.14-.72l.18-.7.27-.69a3.3,3.3,0,0,1,.25-.53,1.29,1.29,0,0,1,.25-.33.52.52,0,0,1,.33-.12c.09,0,.13.07.13.19a1.56,1.56,0,0,1-.05.33q0,.2-.12.42c0,.14-.11.3-.16.46l-.18.46-.17.42c-.05.13-.09.23-.12.32s-.13.41-.22.67-.18.55-.28.85-.21.6-.31.91S48.25,7,48.17,7.27Zm5.61.89a2.27,2.27,0,0,1,.11-.46l.17-.46a1.38,1.38,0,0,1,.2-.33.89.89,0,0,1,.3-.24A.94.94,0,0,1,55,6.58a.3.3,0,0,1,.24.17.87.87,0,0,1,.09.42.8.8,0,0,1-.2.46,2.31,2.31,0,0,1-.42.45,2.2,2.2,0,0,1-.47.27,1.18,1.18,0,0,1-.46.11C53.77,8.38,53.78,8.27,53.78,8.16ZM64.3,9.79a.69.69,0,0,1-.12.29.61.61,0,0,1-.24.21.86.86,0,0,1-.38.08.63.63,0,0,1-.33-.09,1.37,1.37,0,0,1-.26-.2l-.2-.19a.2.2,0,0,0-.15-.09l1.62-1.71.07.23a1.12,1.12,0,0,1,0,.38,1.4,1.4,0,0,0,0,.41c0,.11,0,.22,0,.33A2,2,0,0,1,64.3,9.79Z"/></g></g></svg>